# xmcd
# 
# Track frame offsets:
#     150
#     12930
#     24580
#     38290
#     59025
#     72820
#     86195
#     101555
#     114412
#     128237
#     148825
#     162502
#     181212
#     194392
#     210095
#     222240
#     237240
#     250625
#     262352
#     284905
# 
# Disc length: 4024
# 
# Revision: 0
# Processed by: cddbd v1.5.2PL0 Copyright (c) Steve Scherf et al.
# Submitted via: BonkEnc v1.0.15
# 
DISCID=2c0fb614
DTITLE=Various Artist - The Blues Standards
DYEAR=0
DGENRE=Blues
TTITLE0=B.B. King - Everyday I Have The Blues
TTITLE1=Memphis Slim - Nobody Loves Me aka Evryday I Have The Blues
TTITLE2=T-Bone Walker - Call It Stormy Monday
TTITLE3=Albert King - Call It Stormy Monday
TTITLE4=Sonny Boy Williamson I - Good Morning Schoolgirl
TTITLE5=Mississippi Fred McDowell - Good Morning Little Schoolgirl
TTITLE6=Big Joe Williams - Baby Pliease Don't Go
TTITLE7=John Lee Hooker - Baby Please Don't Go
TTITLE8=Big Bill Broonzy - Key To The Highway
TTITLE9=Freddie King - Key To The Highway
TTITLE10=Guitar Slim - The Things That I Used To Do
TTITLE11=Little Sonny - The Things That I Used To Do
TTITLE12=Jimmy Witherspoon - Ain't Nobody's Business Pt.1
TTITLE13=Bessie Smith - 'Tain't Nobody's Bizness If I Do
TTITLE14=Eddie Reed - Five Long Years
TTITLE15=Jimmy Reed - Five Long Years
TTITLE16=Tommy McClennan - Baby Don't You Want To Go
TTITLE17=Robert Lockwood - Aw Aw Baby aka Sweet Home Chicago
TTITLE18=Otis Rush - Got My Mojo Working
TTITLE19=Muddy Waters - Got My Mojo Workin'
EXTD=Blues and Soul Records No.37
EXTT0=
EXTT1=
EXTT2=
EXTT3=
EXTT4=
EXTT5=
EXTT6=
EXTT7=
EXTT8=
EXTT9=
EXTT10=
EXTT11=
EXTT12=
EXTT13=
EXTT14=
EXTT15=
EXTT16=
EXTT17=
EXTT18=
EXTT19=
PLAYORDER=
